<svg fill="#fff" xmlns="http://www.w3.org/2000/svg"  viewBox="0 0 50 50" width="150px" height="150px">
<path fill-rule="evenodd" d="M 28.929688 9 L 28.683594 9 L 28.558594 9.007813 L 28.433594 9.007813 L 28.3125 9.015625 L 28.1875 9.019531 L 28.0625 9.027344 L 27.941406 9.035156 L 27.820313 9.046875 L 27.699219 9.054688 L 27.578125 9.070313 L 27.457031 9.078125 L 27.339844 9.09375 L 27.097656 9.125 L 26.980469 9.140625 L 26.738281 9.179688 L 26.621094 9.203125 L 26.386719 9.242188 L 26.265625 9.265625 L 26.152344 9.292969 L 26.035156 9.320313 L 25.921875 9.34375 L 25.800781 9.371094 L 25.6875 9.398438 L 25.574219 9.429688 L 25.457031 9.460938 L 25.230469 9.523438 L 24.890625 9.628906 L 24.78125 9.664063 L 24.667969 9.703125 L 24.339844 9.820313 L 24.226563 9.859375 L 24.117188 9.902344 L 24.011719 9.945313 L 23.902344 9.992188 L 23.792969 10.035156 L 23.6875 10.078125 L 23.578125 10.128906 L 23.367188 10.222656 L 23.050781 10.375 L 22.949219 10.425781 L 22.84375 10.480469 L 22.539063 10.644531 L 22.4375 10.703125 L 22.339844 10.761719 L 22.238281 10.816406 L 22.140625 10.875 L 22.039063 10.9375 L 21.941406 11 L 21.84375 11.058594 L 21.746094 11.121094 L 21.652344 11.1875 L 21.554688 11.25 L 21.460938 11.3125 L 21.363281 11.378906 L 21.269531 11.445313 L 21.175781 11.515625 L 21.085938 11.578125 L 20.992188 11.652344 L 20.902344 11.71875 L 20.8125 11.789063 L 20.71875 11.859375 L 20.628906 11.933594 L 20.542969 12.003906 L 20.453125 12.078125 L 20.363281 12.15625 L 20.105469 12.378906 L 20.019531 12.457031 L 19.855469 12.613281 L 19.769531 12.691406 L 19.6875 12.773438 L 19.609375 12.855469 L 19.527344 12.9375 L 19.445313 13.015625 L 19.367188 13.101563 L 19.285156 13.183594 L 19.210938 13.265625 L 19.132813 13.355469 L 19.058594 13.4375 L 18.980469 13.527344 L 18.90625 13.609375 L 18.832031 13.699219 L 18.761719 13.785156 L 18.6875 13.875 L 18.613281 13.96875 L 18.542969 14.058594 L 18.472656 14.144531 L 18.40625 14.238281 L 18.335938 14.328125 L 18.265625 14.421875 L 18.066406 14.703125 L 18.003906 14.796875 L 17.9375 14.894531 L 17.875 14.988281 L 17.8125 15.085938 L 17.753906 15.183594 L 17.691406 15.28125 L 17.632813 15.378906 L 17.574219 15.480469 L 17.457031 15.675781 L 17.402344 15.78125 L 17.347656 15.878906 L 17.238281 16.082031 L 17.1875 16.1875 L 17.136719 16.289063 L 17.082031 16.390625 L 17.03125 16.496094 L 16.984375 16.601563 L 16.828125 16.515625 L 16.742188 16.46875 L 16.652344 16.421875 L 16.554688 16.375 L 16.453125 16.328125 L 16.347656 16.277344 L 16.238281 16.230469 L 16.125 16.175781 L 16.011719 16.128906 L 15.890625 16.078125 L 15.640625 15.984375 L 15.511719 15.9375 L 15.246094 15.84375 L 15.109375 15.800781 L 14.96875 15.761719 L 14.832031 15.71875 L 14.550781 15.640625 L 14.40625 15.609375 L 14.265625 15.578125 L 14.121094 15.546875 L 13.980469 15.519531 L 13.835938 15.496094 L 13.765625 15.484375 L 13.691406 15.476563 L 13.625 15.46875 L 13.550781 15.457031 L 13.484375 15.453125 L 13.410156 15.445313 L 13.34375 15.4375 L 13.269531 15.4375 L 13.136719 15.429688 L 13.0625 15.425781 L 12.910156 15.425781 L 12.824219 15.429688 L 12.734375 15.433594 L 12.652344 15.4375 L 12.566406 15.4375 L 12.394531 15.453125 L 12.3125 15.460938 L 12.226563 15.46875 L 12.140625 15.480469 L 12.0625 15.488281 L 11.976563 15.5 L 11.894531 15.515625 L 11.8125 15.527344 L 11.566406 15.574219 L 11.484375 15.59375 L 11.40625 15.609375 L 11.324219 15.628906 L 11.246094 15.652344 L 11.089844 15.691406 L 11.011719 15.71875 L 10.933594 15.738281 L 10.777344 15.792969 L 10.699219 15.816406 L 10.625 15.84375 L 10.546875 15.875 L 10.472656 15.902344 L 10.25 15.996094 L 10.175781 16.03125 L 10.105469 16.0625 L 10.03125 16.097656 L 9.960938 16.132813 L 9.890625 16.171875 L 9.820313 16.203125 L 9.75 16.246094 L 9.679688 16.28125 L 9.609375 16.320313 L 9.546875 16.359375 L 9.476563 16.402344 L 9.40625 16.441406 L 9.34375 16.484375 L 9.273438 16.53125 L 9.210938 16.574219 L 9.148438 16.621094 L 9.082031 16.664063 L 9.015625 16.710938 L 8.953125 16.757813 L 8.890625 16.808594 L 8.828125 16.855469 L 8.769531 16.90625 L 8.710938 16.953125 L 8.648438 17.003906 L 8.589844 17.058594 L 8.472656 17.160156 L 8.414063 17.214844 L 8.25 17.378906 L 8.195313 17.4375 L 8.140625 17.492188 L 8.03125 17.609375 L 7.984375 17.667969 L 7.929688 17.726563 L 7.882813 17.785156 L 7.828125 17.847656 L 7.78125 17.90625 L 7.640625 18.09375 L 7.59375 18.160156 L 7.546875 18.222656 L 7.375 18.488281 L 7.335938 18.554688 L 7.296875 18.625 L 7.253906 18.691406 L 7.214844 18.761719 L 7.179688 18.828125 L 7.101563 18.96875 L 7.070313 19.042969 L 7.03125 19.109375 L 6.96875 19.257813 L 6.933594 19.328125 L 6.902344 19.402344 L 6.875 19.476563 L 6.8125 19.625 L 6.789063 19.703125 L 6.757813 19.777344 L 6.710938 19.933594 L 6.6875 20.007813 L 6.660156 20.085938 L 6.640625 20.164063 L 6.617188 20.242188 L 6.597656 20.324219 L 6.558594 20.480469 L 6.539063 20.5625 L 6.523438 20.640625 L 6.492188 20.804688 L 6.46875 20.96875 L 6.453125 21.050781 L 6.445313 21.132813 L 6.4375 21.21875 L 6.429688 21.296875 L 6.414063 21.46875 L 6.40625 21.550781 L 6.394531 21.808594 L 6.394531 21.890625 L 6.390625 21.980469 L 6.394531 22.082031 L 6.398438 22.1875 L 6.398438 22.292969 L 6.40625 22.394531 L 6.414063 22.503906 L 6.429688 22.714844 L 6.445313 22.820313 L 6.457031 22.925781 L 6.472656 23.03125 L 6.488281 23.132813 L 6.507813 23.234375 L 6.523438 23.339844 L 6.59375 23.632813 L 6.523438 23.660156 L 6.453125 23.691406 L 6.257813 23.789063 L 6.125 23.859375 L 6.0625 23.890625 L 5.996094 23.925781 L 5.933594 23.964844 L 5.867188 24 L 5.804688 24.035156 L 5.742188 24.074219 L 5.683594 24.113281 L 5.621094 24.152344 L 5.5625 24.191406 L 5.4375 24.269531 L 5.320313 24.355469 L 5.203125 24.4375 L 4.976563 24.617188 L 4.757813 24.804688 L 4.648438 24.902344 L 4.546875 25 L 4.441406 25.097656 L 4.339844 25.203125 L 4.242188 25.308594 L 4.140625 25.410156 L 3.953125 25.628906 L 3.773438 25.855469 L 3.6875 25.96875 L 3.601563 26.089844 L 3.515625 26.203125 L 3.4375 26.328125 L 3.359375 26.449219 L 3.28125 26.574219 L 3.132813 26.824219 L 3.0625 26.953125 L 2.996094 27.078125 L 2.929688 27.214844 L 2.867188 27.34375 L 2.742188 27.609375 L 2.6875 27.75 L 2.578125 28.023438 L 2.53125 28.160156 L 2.480469 28.300781 L 2.433594 28.445313 L 2.390625 28.589844 L 2.351563 28.730469 L 2.308594 28.875 L 2.273438 29.019531 L 2.234375 29.167969 L 2.203125 29.3125 L 2.175781 29.464844 L 2.148438 29.609375 L 2.121094 29.761719 L 2.101563 29.910156 L 2.078125 30.0625 L 2.0625 30.214844 L 2.046875 30.363281 L 2.03125 30.515625 L 2.019531 30.671875 L 2.011719 30.824219 L 2.007813 30.976563 L 2 31.128906 L 2 31.398438 L 2.007813 31.625 L 2.015625 31.84375 L 2.023438 31.953125 L 2.035156 32.066406 L 2.046875 32.175781 L 2.054688 32.285156 L 2.101563 32.613281 L 2.117188 32.71875 L 2.15625 32.9375 L 2.25 33.359375 L 2.277344 33.464844 L 2.304688 33.566406 L 2.335938 33.671875 L 2.363281 33.777344 L 2.394531 33.875 L 2.429688 33.980469 L 2.460938 34.078125 L 2.496094 34.183594 L 2.53125 34.28125 L 2.570313 34.382813 L 2.648438 34.578125 L 2.691406 34.675781 L 2.734375 34.777344 L 2.777344 34.871094 L 2.820313 34.96875 L 2.914063 35.15625 L 2.960938 35.253906 L 3.011719 35.347656 L 3.0625 35.4375 L 3.164063 35.625 L 3.382813 35.984375 L 3.445313 36.070313 L 3.5 36.15625 L 3.5625 36.246094 L 3.621094 36.328125 L 3.746094 36.5 L 3.8125 36.582031 L 3.875 36.667969 L 3.941406 36.75 L 4.007813 36.828125 L 4.078125 36.90625 L 4.144531 36.988281 L 4.214844 37.066406 L 4.28125 37.144531 L 4.355469 37.222656 L 4.429688 37.296875 L 4.5 37.375 L 4.578125 37.449219 L 4.648438 37.519531 L 4.726563 37.59375 L 4.882813 37.734375 L 4.960938 37.808594 L 5.117188 37.941406 L 5.199219 38.011719 L 5.28125 38.078125 L 5.445313 38.203125 L 5.53125 38.269531 L 5.617188 38.328125 L 5.789063 38.453125 L 5.875 38.511719 L 5.964844 38.570313 L 6.054688 38.625 L 6.140625 38.683594 L 6.234375 38.738281 L 6.324219 38.792969 L 6.414063 38.84375 L 6.507813 38.894531 L 6.601563 38.949219 L 6.695313 39 L 6.882813 39.09375 L 7.078125 39.1875 L 7.273438 39.273438 L 7.371094 39.3125 L 7.46875 39.355469 L 7.671875 39.433594 L 7.769531 39.46875 L 7.871094 39.507813 L 8.074219 39.578125 L 8.179688 39.609375 L 8.28125 39.640625 L 8.386719 39.671875 L 8.492188 39.699219 L 8.59375 39.726563 L 8.703125 39.75 L 8.804688 39.777344 L 9.023438 39.824219 L 9.234375 39.863281 L 9.453125 39.902344 L 9.5625 39.914063 L 9.671875 39.929688 L 9.78125 39.941406 L 9.894531 39.953125 L 10.003906 39.964844 L 10.117188 39.972656 L 10.230469 39.984375 L 10.34375 39.988281 L 10.453125 39.996094 L 10.566406 39.996094 L 10.679688 40 L 39.316406 40 L 39.433594 39.996094 L 39.546875 39.996094 L 39.65625 39.988281 L 39.769531 39.984375 L 39.882813 39.972656 L 39.992188 39.964844 L 40.105469 39.953125 L 40.324219 39.929688 L 40.4375 39.914063 L 40.546875 39.902344 L 40.652344 39.882813 L 40.980469 39.824219 L 41.191406 39.777344 L 41.296875 39.75 L 41.402344 39.726563 L 41.613281 39.671875 L 41.71875 39.640625 L 41.921875 39.578125 L 42.027344 39.542969 L 42.128906 39.507813 L 42.230469 39.46875 L 42.328125 39.433594 L 42.53125 39.355469 L 42.628906 39.3125 L 42.726563 39.273438 L 42.921875 39.1875 L 43.015625 39.140625 L 43.113281 39.09375 L 43.207031 39.046875 L 43.304688 39 L 43.398438 38.949219 L 43.488281 38.894531 L 43.675781 38.792969 L 43.855469 38.683594 L 43.945313 38.625 L 44.035156 38.570313 L 44.125 38.511719 L 44.210938 38.453125 L 44.382813 38.328125 L 44.46875 38.269531 L 44.550781 38.203125 L 44.636719 38.140625 L 44.71875 38.078125 L 44.800781 38.011719 L 44.878906 37.941406 L 44.960938 37.875 L 45.039063 37.808594 L 45.121094 37.734375 L 45.195313 37.664063 L 45.273438 37.59375 L 45.347656 37.519531 L 45.421875 37.449219 L 45.5 37.375 L 45.574219 37.296875 L 45.644531 37.222656 L 45.855469 36.988281 L 45.921875 36.90625 L 45.992188 36.828125 L 46.058594 36.75 L 46.125 36.667969 L 46.1875 36.582031 L 46.253906 36.5 L 46.378906 36.328125 L 46.4375 36.246094 L 46.5 36.15625 L 46.558594 36.070313 L 46.613281 35.984375 L 46.671875 35.894531 L 46.835938 35.625 L 46.9375 35.4375 L 46.988281 35.347656 L 47.035156 35.253906 L 47.085938 35.15625 L 47.179688 34.96875 L 47.222656 34.871094 L 47.265625 34.777344 L 47.308594 34.675781 L 47.347656 34.578125 L 47.390625 34.480469 L 47.429688 34.382813 L 47.46875 34.28125 L 47.503906 34.183594 L 47.535156 34.078125 L 47.574219 33.980469 L 47.605469 33.875 L 47.636719 33.777344 L 47.667969 33.671875 L 47.695313 33.566406 L 47.722656 33.464844 L 47.777344 33.253906 L 47.796875 33.148438 L 47.84375 32.9375 L 47.863281 32.828125 L 47.878906 32.71875 L 47.898438 32.613281 L 47.929688 32.394531 L 47.964844 32.066406 L 47.972656 31.953125 L 47.984375 31.84375 L 47.988281 31.734375 L 47.996094 31.625 L 47.996094 31.511719 L 48 31.398438 L 48 31.109375 L 47.996094 31.015625 L 47.992188 30.925781 L 47.988281 30.839844 L 47.980469 30.660156 L 47.96875 30.574219 L 47.964844 30.484375 L 47.953125 30.398438 L 47.945313 30.3125 L 47.9375 30.222656 L 47.921875 30.136719 L 47.910156 30.050781 L 47.902344 29.964844 L 47.871094 29.792969 L 47.855469 29.703125 L 47.839844 29.621094 L 47.824219 29.535156 L 47.804688 29.453125 L 47.765625 29.28125 L 47.746094 29.199219 L 47.722656 29.113281 L 47.703125 29.03125 L 47.683594 28.953125 L 47.65625 28.867188 L 47.609375 28.703125 L 47.582031 28.625 L 47.554688 28.542969 L 47.527344 28.464844 L 47.5 28.378906 L 47.46875 28.300781 L 47.441406 28.222656 L 47.410156 28.140625 L 47.347656 27.984375 L 47.3125 27.90625 L 47.28125 27.828125 L 47.246094 27.75 L 47.214844 27.675781 L 47.175781 27.597656 L 47.105469 27.449219 L 47.0625 27.371094 L 47.027344 27.296875 L 46.984375 27.222656 L 46.949219 27.148438 L 46.863281 27 L 46.824219 26.929688 L 46.78125 26.859375 L 46.734375 26.785156 L 46.691406 26.714844 L 46.648438 26.640625 L 46.605469 26.574219 L 46.464844 26.363281 L 46.414063 26.296875 L 46.363281 26.226563 L 46.316406 26.160156 L 46.265625 26.09375 L 46.21875 26.027344 L 46.164063 25.960938 L 46.0625 25.828125 L 46.007813 25.765625 L 45.953125 25.699219 L 45.902344 25.636719 L 45.84375 25.574219 L 45.734375 25.449219 L 45.675781 25.390625 L 45.621094 25.328125 L 45.5625 25.265625 L 45.386719 25.089844 L 45.324219 25.03125 L 45.265625 24.972656 L 45.203125 24.917969 L 45.140625 24.859375 L 45.015625 24.75 L 44.953125 24.691406 L 44.890625 24.640625 L 44.824219 24.585938 L 44.761719 24.53125 L 44.691406 24.480469 L 44.625 24.429688 L 44.5625 24.378906 L 44.496094 24.328125 L 44.425781 24.277344 L 44.359375 24.230469 L 44.289063 24.179688 L 44.21875 24.132813 L 44.152344 24.082031 L 44.078125 24.035156 L 44.011719 23.988281 L 43.9375 23.945313 L 43.871094 23.902344 L 43.796875 23.859375 L 43.722656 23.8125 L 43.652344 23.769531 L 43.578125 23.730469 L 43.503906 23.6875 L 43.433594 23.644531 L 43.355469 23.609375 L 43.28125 23.566406 L 43.203125 23.527344 L 43.128906 23.488281 L 42.980469 23.417969 L 42.902344 23.378906 L 42.824219 23.34375 L 42.746094 23.3125 L 42.667969 23.277344 L 42.511719 23.214844 L 42.347656 23.152344 L 42.269531 23.121094 L 42.1875 23.089844 L 42.109375 23.0625 L 42.027344 23.03125 L 42.046875 22.78125 L 42.058594 22.660156 L 42.074219 22.410156 L 42.082031 22.160156 L 42.082031 21.867188 L 42.074219 21.53125 L 42.066406 21.363281 L 42.058594 21.199219 L 42.046875 21.03125 L 42.015625 20.703125 L 42 20.535156 L 41.980469 20.375 L 41.957031 20.214844 L 41.933594 20.046875 L 41.90625 19.890625 L 41.878906 19.726563 L 41.816406 19.40625 L 41.746094 19.09375 L 41.710938 18.933594 L 41.671875 18.777344 L 41.628906 18.621094 L 41.585938 18.46875 L 41.492188 18.15625 L 41.441406 18.003906 L 41.390625 17.855469 L 41.339844 17.703125 L 41.285156 17.550781 L 41.230469 17.402344 L 41.171875 17.253906 L 41.109375 17.109375 L 41.050781 16.960938 L 40.984375 16.8125 L 40.921875 16.671875 L 40.855469 16.527344 L 40.785156 16.382813 L 40.71875 16.238281 L 40.644531 16.097656 L 40.570313 15.960938 L 40.496094 15.820313 L 40.421875 15.683594 L 40.34375 15.546875 L 40.261719 15.410156 L 40.179688 15.277344 L 40.09375 15.140625 L 40.011719 15.007813 L 39.925781 14.875 L 39.839844 14.746094 L 39.746094 14.613281 L 39.65625 14.488281 L 39.5625 14.359375 L 39.375 14.109375 L 39.277344 13.984375 L 39.179688 13.863281 L 39.078125 13.742188 L 38.980469 13.621094 L 38.769531 13.386719 L 38.667969 13.269531 L 38.449219 13.042969 L 38.34375 12.925781 L 37.890625 12.488281 L 37.773438 12.386719 L 37.65625 12.28125 L 37.535156 12.175781 L 37.417969 12.078125 L 37.296875 11.976563 L 37.171875 11.875 L 37.046875 11.78125 L 36.925781 11.683594 L 36.796875 11.589844 L 36.671875 11.496094 L 36.542969 11.40625 L 36.410156 11.3125 L 36.28125 11.222656 L 36.152344 11.140625 L 36.015625 11.050781 L 35.886719 10.96875 L 35.75 10.886719 L 35.613281 10.808594 L 35.476563 10.726563 L 35.339844 10.648438 L 34.917969 10.425781 L 34.628906 10.285156 L 34.484375 10.21875 L 34.34375 10.152344 L 34.195313 10.089844 L 34.046875 10.023438 L 33.902344 9.960938 L 33.75 9.90625 L 33.601563 9.84375 L 33.453125 9.789063 L 33.296875 9.734375 L 33.144531 9.6875 L 32.996094 9.632813 L 32.839844 9.585938 L 32.6875 9.539063 L 32.53125 9.492188 L 32.375 9.453125 L 32.214844 9.410156 L 32.058594 9.371094 L 31.898438 9.335938 L 31.738281 9.296875 L 31.257813 9.203125 L 31.09375 9.175781 L 30.933594 9.148438 L 30.765625 9.125 L 30.605469 9.105469 L 30.4375 9.085938 L 30.273438 9.066406 L 30.109375 9.054688 L 29.9375 9.039063 L 29.773438 9.023438 L 29.4375 9.007813 L 29.265625 9.003906 L 29.097656 9 Z M 28.824219 11 L 29.074219 11 L 29.21875 11.003906 L 29.359375 11.007813 L 29.648438 11.023438 L 29.789063 11.03125 L 29.933594 11.046875 L 30.074219 11.058594 L 30.355469 11.089844 L 30.492188 11.109375 L 30.632813 11.128906 L 30.769531 11.148438 L 30.90625 11.171875 L 31.046875 11.199219 L 31.183594 11.222656 L 31.316406 11.253906 L 31.453125 11.28125 L 31.589844 11.3125 L 31.855469 11.382813 L 31.984375 11.421875 L 32.121094 11.457031 L 32.378906 11.535156 L 32.511719 11.578125 L 32.769531 11.671875 L 32.894531 11.71875 L 33.023438 11.765625 L 33.152344 11.816406 L 33.277344 11.871094 L 33.402344 11.921875 L 33.644531 12.03125 L 33.769531 12.089844 L 34.011719 12.207031 L 34.128906 12.269531 L 34.25 12.332031 L 34.71875 12.597656 L 34.832031 12.671875 L 34.945313 12.738281 L 35.058594 12.8125 L 35.171875 12.890625 L 35.390625 13.039063 L 35.609375 13.195313 L 35.820313 13.359375 L 35.925781 13.4375 L 36.03125 13.523438 L 36.335938 13.78125 L 36.4375 13.871094 L 36.53125 13.964844 L 36.628906 14.050781 L 36.824219 14.238281 L 37.011719 14.425781 L 37.28125 14.71875 L 37.371094 14.820313 L 37.542969 15.023438 L 37.625 15.125 L 37.710938 15.230469 L 37.792969 15.332031 L 37.875 15.4375 L 38.109375 15.765625 L 38.183594 15.875 L 38.261719 15.984375 L 38.332031 16.09375 L 38.40625 16.207031 L 38.472656 16.320313 L 38.542969 16.4375 L 38.609375 16.550781 L 38.675781 16.667969 L 38.742188 16.78125 L 38.808594 16.902344 L 38.867188 17.015625 L 38.988281 17.257813 L 39.046875 17.378906 L 39.15625 17.621094 L 39.265625 17.871094 L 39.359375 18.121094 L 39.410156 18.246094 L 39.453125 18.371094 L 39.5 18.5 L 39.542969 18.628906 L 39.582031 18.757813 L 39.625 18.886719 L 39.660156 19.015625 L 39.699219 19.148438 L 39.734375 19.28125 L 39.765625 19.410156 L 39.800781 19.546875 L 39.828125 19.675781 L 39.859375 19.8125 L 39.886719 19.949219 L 39.910156 20.082031 L 39.933594 20.21875 L 39.953125 20.355469 L 39.976563 20.488281 L 39.996094 20.628906 L 40.011719 20.765625 L 40.027344 20.90625 L 40.0625 21.328125 L 40.078125 21.609375 L 40.078125 21.75 L 40.082031 21.890625 L 40.082031 22.121094 L 40.078125 22.210938 L 40.078125 22.304688 L 40.070313 22.40625 L 40.054688 22.625 L 39.90625 24.421875 L 41.453125 24.953125 L 41.515625 24.972656 L 41.703125 25.042969 L 41.761719 25.066406 L 41.824219 25.09375 L 41.886719 25.117188 L 42.0625 25.199219 L 42.125 25.226563 L 42.242188 25.28125 L 42.476563 25.40625 L 42.53125 25.4375 L 42.589844 25.46875 L 42.644531 25.5 L 42.703125 25.53125 L 42.761719 25.566406 L 42.8125 25.597656 L 42.871094 25.636719 L 42.925781 25.671875 L 42.980469 25.703125 L 43.03125 25.742188 L 43.085938 25.78125 L 43.140625 25.816406 L 43.191406 25.855469 L 43.246094 25.890625 L 43.296875 25.933594 L 43.347656 25.96875 L 43.402344 26.011719 L 43.453125 26.046875 L 43.503906 26.089844 L 43.550781 26.128906 L 43.605469 26.171875 L 43.652344 26.214844 L 43.703125 26.253906 L 43.75 26.296875 L 43.796875 26.34375 L 43.9375 26.472656 L 43.984375 26.519531 L 44.03125 26.5625 L 44.125 26.65625 L 44.167969 26.703125 L 44.214844 26.75 L 44.253906 26.796875 L 44.296875 26.84375 L 44.34375 26.894531 L 44.386719 26.941406 L 44.425781 26.992188 L 44.511719 27.09375 L 44.546875 27.140625 L 44.589844 27.191406 L 44.628906 27.242188 L 44.667969 27.296875 L 44.703125 27.34375 L 44.746094 27.398438 L 44.78125 27.453125 L 44.816406 27.503906 L 44.855469 27.558594 L 44.890625 27.609375 L 44.925781 27.664063 L 44.964844 27.71875 L 44.996094 27.773438 L 45.03125 27.828125 L 45.09375 27.9375 L 45.128906 27.996094 L 45.160156 28.050781 L 45.191406 28.109375 L 45.222656 28.164063 L 45.253906 28.222656 L 45.28125 28.28125 L 45.3125 28.339844 L 45.339844 28.394531 L 45.449219 28.628906 L 45.472656 28.6875 L 45.5 28.75 L 45.523438 28.8125 L 45.546875 28.871094 L 45.570313 28.933594 L 45.59375 28.992188 L 45.613281 29.050781 L 45.640625 29.113281 L 45.65625 29.175781 L 45.679688 29.238281 L 45.71875 29.363281 L 45.734375 29.425781 L 45.753906 29.488281 L 45.769531 29.550781 L 45.789063 29.617188 L 45.804688 29.683594 L 45.835938 29.808594 L 45.847656 29.875 L 45.863281 29.9375 L 45.875 30.003906 L 45.890625 30.070313 L 45.902344 30.136719 L 45.910156 30.203125 L 45.921875 30.265625 L 45.933594 30.332031 L 45.941406 30.402344 L 45.949219 30.46875 L 45.957031 30.53125 L 45.972656 30.671875 L 45.980469 30.734375 L 45.984375 30.804688 L 45.984375 30.871094 L 45.988281 30.941406 L 45.996094 31.011719 L 45.996094 31.078125 L 46 31.144531 L 46 31.460938 L 45.996094 31.546875 L 45.988281 31.632813 L 45.984375 31.71875 L 45.980469 31.800781 L 45.972656 31.890625 L 45.964844 31.972656 L 45.953125 32.058594 L 45.945313 32.140625 L 45.933594 32.222656 L 45.921875 32.308594 L 45.90625 32.390625 L 45.894531 32.472656 L 45.878906 32.558594 L 45.863281 32.640625 L 45.84375 32.71875 L 45.828125 32.800781 L 45.808594 32.878906 L 45.785156 32.960938 L 45.765625 33.042969 L 45.746094 33.121094 L 45.71875 33.199219 L 45.695313 33.277344 L 45.671875 33.359375 L 45.644531 33.433594 L 45.5625 33.667969 L 45.46875 33.890625 L 45.4375 33.96875 L 45.40625 34.042969 L 45.371094 34.113281 L 45.332031 34.1875 L 45.296875 34.261719 L 45.261719 34.332031 L 45.222656 34.40625 L 45.1875 34.480469 L 45.144531 34.546875 L 45.105469 34.621094 L 45.0625 34.6875 L 45.019531 34.761719 L 44.980469 34.828125 L 44.9375 34.894531 L 44.890625 34.964844 L 44.84375 35.03125 L 44.800781 35.097656 L 44.753906 35.164063 L 44.703125 35.230469 L 44.65625 35.296875 L 44.609375 35.359375 L 44.507813 35.484375 L 44.453125 35.546875 L 44.402344 35.609375 L 44.347656 35.671875 L 44.296875 35.734375 L 44.1875 35.851563 L 44.128906 35.910156 L 44.074219 35.96875 L 44.015625 36.027344 L 43.957031 36.082031 L 43.902344 36.140625 L 43.84375 36.195313 L 43.65625 36.359375 L 43.59375 36.410156 L 43.53125 36.464844 L 43.46875 36.515625 L 43.40625 36.5625 L 43.34375 36.613281 L 43.277344 36.660156 L 43.210938 36.710938 L 43.078125 36.804688 L 43.011719 36.847656 L 42.941406 36.894531 L 42.875 36.9375 L 42.804688 36.984375 L 42.734375 37.027344 L 42.664063 37.066406 L 42.59375 37.109375 L 42.519531 37.148438 L 42.449219 37.1875 L 42.375 37.222656 L 42.304688 37.265625 L 42.007813 37.40625 L 41.933594 37.4375 L 41.855469 37.46875 L 41.78125 37.5 L 41.546875 37.59375 L 41.46875 37.621094 L 41.390625 37.644531 L 41.234375 37.699219 L 41.152344 37.71875 L 41.070313 37.746094 L 40.90625 37.785156 L 40.828125 37.808594 L 40.746094 37.828125 L 40.660156 37.84375 L 40.578125 37.863281 L 40.496094 37.878906 L 40.410156 37.894531 L 40.328125 37.90625 L 40.246094 37.921875 L 40.074219 37.945313 L 39.988281 37.953125 L 39.90625 37.964844 L 39.816406 37.972656 L 39.730469 37.980469 L 39.558594 37.988281 L 39.46875 37.996094 L 39.382813 38 L 10.613281 38 L 10.527344 37.996094 L 10.441406 37.988281 L 10.355469 37.984375 L 10.265625 37.980469 L 10.09375 37.964844 L 10.011719 37.953125 L 9.921875 37.945313 L 9.835938 37.933594 L 9.753906 37.921875 L 9.671875 37.90625 L 9.585938 37.894531 L 9.5 37.878906 L 9.417969 37.863281 L 9.335938 37.84375 L 9.253906 37.828125 L 9.171875 37.808594 L 9.089844 37.785156 L 9.007813 37.765625 L 8.929688 37.746094 L 8.847656 37.71875 L 8.765625 37.699219 L 8.609375 37.644531 L 8.53125 37.621094 L 8.453125 37.59375 L 8.21875 37.5 L 8.070313 37.4375 L 7.992188 37.40625 L 7.695313 37.265625 L 7.621094 37.226563 L 7.550781 37.1875 L 7.476563 37.148438 L 7.40625 37.109375 L 7.335938 37.066406 L 7.265625 37.027344 L 7.195313 36.984375 L 7.125 36.9375 L 7.054688 36.894531 L 6.992188 36.847656 L 6.921875 36.804688 L 6.789063 36.710938 L 6.722656 36.660156 L 6.65625 36.613281 L 6.59375 36.5625 L 6.53125 36.515625 L 6.46875 36.464844 L 6.402344 36.410156 L 6.34375 36.359375 L 6.15625 36.195313 L 6.042969 36.082031 L 5.984375 36.027344 L 5.8125 35.855469 L 5.757813 35.792969 L 5.703125 35.734375 L 5.648438 35.671875 L 5.546875 35.546875 L 5.492188 35.484375 L 5.445313 35.421875 L 5.390625 35.359375 L 5.34375 35.296875 L 5.296875 35.230469 L 5.246094 35.164063 L 5.199219 35.097656 L 5.15625 35.03125 L 5.109375 34.964844 L 5.0625 34.894531 L 5.023438 34.828125 L 4.976563 34.761719 L 4.9375 34.6875 L 4.894531 34.621094 L 4.855469 34.546875 L 4.8125 34.480469 L 4.773438 34.40625 L 4.738281 34.332031 L 4.703125 34.261719 L 4.664063 34.1875 L 4.632813 34.113281 L 4.59375 34.042969 L 4.5625 33.96875 L 4.53125 33.890625 L 4.4375 33.667969 L 4.355469 33.433594 L 4.328125 33.359375 L 4.304688 33.277344 L 4.234375 33.042969 L 4.210938 32.960938 L 4.191406 32.878906 L 4.171875 32.800781 L 4.15625 32.71875 L 4.136719 32.640625 L 4.121094 32.558594 L 4.105469 32.472656 L 4.09375 32.390625 L 4.078125 32.308594 L 4.066406 32.222656 L 4.054688 32.140625 L 4.046875 32.058594 L 4.035156 31.972656 L 4.027344 31.890625 L 4.019531 31.800781 L 4.015625 31.71875 L 4.007813 31.632813 L 4.007813 31.546875 L 4 31.460938 L 4 31.160156 L 4.003906 31.042969 L 4.007813 30.921875 L 4.015625 30.796875 L 4.023438 30.675781 L 4.035156 30.558594 L 4.046875 30.4375 L 4.0625 30.316406 L 4.078125 30.199219 L 4.09375 30.078125 L 4.117188 29.964844 L 4.140625 29.84375 L 4.164063 29.730469 L 4.1875 29.613281 L 4.242188 29.386719 L 4.273438 29.269531 L 4.304688 29.160156 L 4.34375 29.046875 L 4.375 28.9375 L 4.414063 28.828125 L 4.453125 28.722656 L 4.492188 28.613281 L 4.539063 28.511719 L 4.578125 28.40625 L 4.625 28.300781 L 4.671875 28.199219 L 4.722656 28.097656 L 4.824219 27.902344 L 4.878906 27.800781 L 4.933594 27.707031 L 4.992188 27.613281 L 5.046875 27.519531 L 5.109375 27.425781 L 5.167969 27.339844 L 5.292969 27.160156 L 5.359375 27.078125 L 5.421875 26.992188 L 5.492188 26.90625 L 5.773438 26.59375 L 5.851563 26.519531 L 5.921875 26.445313 L 6.15625 26.234375 L 6.234375 26.171875 L 6.320313 26.105469 L 6.398438 26.042969 L 6.484375 25.980469 L 6.570313 25.921875 L 6.660156 25.859375 L 6.699219 25.835938 L 6.742188 25.808594 L 6.789063 25.78125 L 6.832031 25.753906 L 6.878906 25.726563 L 6.921875 25.703125 L 6.96875 25.675781 L 7.015625 25.652344 L 7.0625 25.625 L 7.25 25.53125 L 7.296875 25.511719 L 7.34375 25.484375 L 8.929688 24.78125 L 8.515625 23.082031 L 8.484375 22.949219 L 8.476563 22.878906 L 8.460938 22.808594 L 8.4375 22.660156 L 8.429688 22.582031 L 8.414063 22.433594 L 8.40625 22.355469 L 8.402344 22.277344 L 8.398438 22.203125 L 8.398438 22.125 L 8.394531 22.050781 L 8.390625 21.980469 L 8.394531 21.917969 L 8.394531 21.855469 L 8.398438 21.796875 L 8.398438 21.734375 L 8.402344 21.675781 L 8.40625 21.613281 L 8.410156 21.558594 L 8.417969 21.496094 L 8.421875 21.4375 L 8.4375 21.320313 L 8.445313 21.265625 L 8.453125 21.203125 L 8.476563 21.09375 L 8.484375 21.035156 L 8.496094 20.980469 L 8.507813 20.921875 L 8.523438 20.867188 L 8.535156 20.8125 L 8.550781 20.757813 L 8.5625 20.703125 L 8.578125 20.648438 L 8.597656 20.59375 L 8.613281 20.542969 L 8.632813 20.484375 L 8.648438 20.433594 L 8.667969 20.382813 L 8.6875 20.328125 L 8.726563 20.226563 L 8.75 20.175781 L 8.769531 20.125 L 8.792969 20.074219 L 8.8125 20.023438 L 8.835938 19.972656 L 8.859375 19.925781 L 8.886719 19.875 L 8.914063 19.828125 L 8.960938 19.734375 L 8.992188 19.683594 L 9.015625 19.636719 L 9.046875 19.59375 L 9.101563 19.5 L 9.164063 19.40625 L 9.195313 19.363281 L 9.226563 19.316406 L 9.257813 19.277344 L 9.289063 19.230469 L 9.351563 19.144531 L 9.386719 19.105469 L 9.421875 19.0625 L 9.453125 19.019531 L 9.492188 18.980469 L 9.527344 18.9375 L 9.5625 18.898438 L 9.601563 18.859375 L 9.671875 18.78125 L 9.75 18.703125 L 9.789063 18.667969 L 9.828125 18.628906 L 9.90625 18.558594 L 9.953125 18.523438 L 10.03125 18.453125 L 10.078125 18.421875 L 10.117188 18.386719 L 10.160156 18.355469 L 10.203125 18.320313 L 10.25 18.289063 L 10.292969 18.257813 L 10.339844 18.226563 L 10.382813 18.195313 L 10.429688 18.167969 L 10.472656 18.136719 L 10.519531 18.109375 L 10.566406 18.078125 L 10.613281 18.050781 L 10.660156 18.027344 L 10.714844 17.996094 L 10.761719 17.96875 L 10.808594 17.945313 L 10.859375 17.921875 L 10.90625 17.894531 L 11.007813 17.847656 L 11.058594 17.828125 L 11.160156 17.78125 L 11.214844 17.761719 L 11.265625 17.738281 L 11.316406 17.71875 L 11.371094 17.703125 L 11.421875 17.683594 L 11.480469 17.664063 L 11.53125 17.648438 L 11.585938 17.628906 L 11.640625 17.613281 L 11.699219 17.597656 L 11.75 17.585938 L 11.808594 17.570313 L 11.863281 17.558594 L 11.921875 17.546875 L 11.980469 17.53125 L 12.035156 17.519531 L 12.09375 17.511719 L 12.152344 17.5 L 12.207031 17.488281 L 12.265625 17.480469 L 12.328125 17.472656 L 12.445313 17.457031 L 12.503906 17.453125 L 12.566406 17.445313 L 12.625 17.441406 L 12.75 17.433594 L 12.8125 17.433594 L 12.871094 17.429688 L 12.9375 17.425781 L 13.074219 17.425781 L 13.113281 17.429688 L 13.199219 17.4375 L 13.242188 17.4375 L 13.285156 17.441406 L 13.335938 17.449219 L 13.429688 17.457031 L 13.480469 17.46875 L 13.523438 17.472656 L 13.632813 17.488281 L 13.734375 17.511719 L 13.84375 17.53125 L 13.953125 17.558594 L 14.0625 17.582031 L 14.175781 17.609375 L 14.285156 17.640625 L 14.394531 17.675781 L 14.511719 17.707031 L 14.621094 17.746094 L 14.730469 17.78125 L 14.835938 17.816406 L 14.941406 17.859375 L 15.046875 17.894531 L 15.144531 17.9375 L 15.246094 17.976563 L 15.339844 18.015625 L 15.429688 18.058594 L 15.515625 18.09375 L 15.597656 18.136719 L 15.675781 18.171875 L 15.75 18.207031 L 15.875 18.269531 L 15.921875 18.300781 L 17.71875 19.335938 L 17.941406 19.265625 L 18.839844 17.355469 L 18.878906 17.265625 L 18.921875 17.179688 L 18.96875 17.09375 L 19.015625 17.003906 L 19.058594 16.921875 L 19.105469 16.832031 L 19.152344 16.75 L 19.199219 16.660156 L 19.25 16.578125 L 19.296875 16.496094 L 19.34375 16.410156 L 19.394531 16.328125 L 19.449219 16.246094 L 19.5 16.160156 L 19.550781 16.078125 L 19.609375 16 L 19.660156 15.917969 L 19.714844 15.839844 L 19.769531 15.757813 L 19.828125 15.675781 L 19.886719 15.597656 L 19.941406 15.519531 L 20.117188 15.285156 L 20.179688 15.214844 L 20.238281 15.136719 L 20.300781 15.0625 L 20.363281 14.984375 L 20.425781 14.910156 L 20.488281 14.839844 L 20.621094 14.691406 L 20.683594 14.621094 L 20.75 14.546875 L 20.816406 14.480469 L 20.886719 14.40625 L 20.953125 14.339844 L 21.019531 14.269531 L 21.089844 14.203125 L 21.230469 14.0625 L 21.300781 14 L 21.375 13.933594 L 21.441406 13.867188 L 21.515625 13.800781 L 21.59375 13.738281 L 21.664063 13.675781 L 21.738281 13.609375 L 21.8125 13.546875 L 21.890625 13.484375 L 21.964844 13.425781 L 22.042969 13.363281 L 22.121094 13.308594 L 22.199219 13.246094 L 22.355469 13.128906 L 22.433594 13.074219 L 22.515625 13.015625 L 22.59375 12.964844 L 22.671875 12.90625 L 22.753906 12.851563 L 22.839844 12.796875 L 22.921875 12.746094 L 23 12.691406 L 23.085938 12.640625 L 23.171875 12.59375 L 23.253906 12.542969 L 23.339844 12.492188 L 23.421875 12.441406 L 23.511719 12.394531 L 23.59375 12.347656 L 23.683594 12.300781 L 23.765625 12.253906 L 23.855469 12.210938 L 23.941406 12.167969 L 24.03125 12.125 L 24.121094 12.078125 L 24.210938 12.035156 L 24.296875 11.996094 L 24.390625 11.953125 L 24.480469 11.917969 L 24.574219 11.878906 L 24.660156 11.839844 L 24.753906 11.800781 L 24.847656 11.765625 L 24.9375 11.730469 L 25.125 11.660156 L 25.21875 11.628906 L 25.3125 11.59375 L 25.40625 11.5625 L 25.503906 11.53125 L 25.597656 11.503906 L 25.691406 11.472656 L 25.984375 11.390625 L 26.078125 11.363281 L 26.175781 11.339844 L 26.277344 11.316406 L 26.375 11.292969 L 26.46875 11.269531 L 26.570313 11.25 L 26.671875 11.226563 L 26.765625 11.207031 L 26.867188 11.1875 L 26.96875 11.171875 L 27.066406 11.152344 L 27.171875 11.136719 L 27.269531 11.121094 L 27.371094 11.109375 L 27.472656 11.09375 L 27.578125 11.078125 L 27.675781 11.066406 L 27.78125 11.058594 L 27.886719 11.046875 L 27.984375 11.039063 L 28.089844 11.03125 L 28.191406 11.023438 L 28.296875 11.015625 L 28.507813 11.007813 L 28.609375 11.003906 L 28.71875 11 Z M 32.640625 22 L 32.5625 22 L 32.484375 22.003906 L 32.40625 22.003906 L 32.328125 22.011719 L 32.246094 22.015625 L 32.171875 22.019531 L 32.089844 22.027344 L 32.011719 22.03125 L 31.855469 22.046875 L 31.773438 22.058594 L 31.695313 22.066406 L 31.613281 22.078125 L 31.378906 22.113281 L 31.296875 22.128906 L 31.21875 22.140625 L 31.0625 22.171875 L 30.980469 22.191406 L 30.902344 22.207031 L 30.738281 22.246094 L 30.660156 22.265625 L 30.5 22.308594 L 30.34375 22.355469 L 30.183594 22.402344 L 30.019531 22.453125 L 29.859375 22.511719 L 29.703125 22.566406 L 29.542969 22.628906 L 29.378906 22.691406 L 29.21875 22.761719 L 29.0625 22.828125 L 28.582031 23.0625 L 28.421875 23.144531 L 28.265625 23.230469 L 28.105469 23.316406 L 27.785156 23.503906 L 27.628906 23.605469 L 27.46875 23.703125 L 27.3125 23.8125 L 27.15625 23.917969 L 26.996094 24.027344 L 26.839844 24.140625 L 26.527344 24.375 L 26.371094 24.5 L 26.21875 24.625 L 26.0625 24.753906 L 28.253906 27.21875 L 28.359375 27.128906 L 28.464844 27.046875 L 28.566406 26.964844 L 28.671875 26.878906 L 28.78125 26.800781 L 28.886719 26.722656 L 28.988281 26.648438 L 29.09375 26.574219 L 29.199219 26.503906 L 29.300781 26.433594 L 29.40625 26.363281 L 29.511719 26.300781 L 29.613281 26.234375 L 29.71875 26.175781 L 29.820313 26.113281 L 29.921875 26.058594 L 30.027344 26 L 30.128906 25.949219 L 30.234375 25.894531 L 30.539063 25.753906 L 30.640625 25.710938 L 30.742188 25.671875 L 30.84375 25.628906 L 30.941406 25.59375 L 31.046875 25.558594 L 31.144531 25.523438 L 31.246094 25.488281 L 31.34375 25.464844 L 31.441406 25.433594 L 31.542969 25.40625 L 31.640625 25.386719 L 31.738281 25.363281 L 31.839844 25.34375 L 31.9375 25.328125 L 32.03125 25.3125 L 32.128906 25.296875 L 32.222656 25.285156 L 32.417969 25.269531 L 32.511719 25.265625 L 32.605469 25.265625 L 32.699219 25.261719 L 32.796875 25.265625 L 32.886719 25.265625 L 32.980469 25.269531 L 33.074219 25.28125 L 33.164063 25.285156 L 33.253906 25.296875 L 33.34375 25.3125 L 33.4375 25.328125 L 33.527344 25.34375 L 33.613281 25.363281 L 33.792969 25.410156 L 33.878906 25.4375 L 33.96875 25.464844 L 34.050781 25.496094 L 34.140625 25.527344 L 34.222656 25.5625 L 34.308594 25.59375 L 34.390625 25.636719 L 34.476563 25.671875 L 34.609375 25.742188 L 34.671875 25.78125 L 34.734375 25.816406 L 34.859375 25.894531 L 34.921875 25.9375 L 34.980469 25.980469 L 35.039063 26.019531 L 35.097656 26.0625 L 35.214844 26.15625 L 35.324219 26.25 L 35.375 26.296875 L 35.429688 26.347656 L 35.484375 26.402344 L 35.53125 26.453125 L 35.582031 26.503906 L 35.632813 26.558594 L 35.679688 26.609375 L 35.726563 26.667969 L 35.773438 26.722656 L 35.816406 26.777344 L 35.859375 26.835938 L 35.90625 26.894531 L 35.949219 26.953125 L 35.984375 27.011719 L 36.027344 27.070313 L 36.0625 27.132813 L 36.101563 27.191406 L 36.140625 27.253906 L 36.171875 27.316406 L 36.207031 27.378906 L 36.238281 27.441406 L 36.300781 27.574219 L 36.328125 27.640625 L 36.359375 27.703125 L 36.386719 27.769531 L 36.410156 27.835938 L 36.4375 27.902344 L 36.457031 27.96875 L 36.480469 28.035156 L 36.5 28.105469 L 36.519531 28.171875 L 36.535156 28.238281 L 36.554688 28.3125 L 36.566406 28.378906 L 36.582031 28.449219 L 36.59375 28.515625 L 36.605469 28.589844 L 36.613281 28.65625 L 36.625 28.726563 L 36.628906 28.796875 L 36.636719 28.867188 L 36.644531 29.007813 L 36.644531 29.148438 L 36.640625 29.21875 L 36.640625 29.289063 L 36.636719 29.359375 L 36.628906 29.433594 L 36.621094 29.5 L 36.613281 29.574219 L 36.605469 29.644531 L 36.59375 29.71875 L 36.578125 29.785156 L 36.566406 29.859375 L 36.550781 29.933594 L 36.535156 30.003906 L 36.519531 30.078125 L 36.480469 30.21875 L 36.457031 30.292969 L 36.4375 30.363281 L 36.410156 30.4375 L 36.386719 30.511719 L 36.359375 30.578125 L 36.328125 30.652344 L 36.265625 30.792969 L 36.230469 30.859375 L 36.191406 30.933594 L 36.113281 31.066406 L 36.070313 31.136719 L 36.027344 31.203125 L 35.980469 31.265625 L 35.933594 31.332031 L 35.878906 31.394531 L 35.828125 31.460938 L 35.773438 31.519531 L 35.71875 31.582031 L 35.65625 31.640625 L 35.59375 31.703125 L 35.53125 31.761719 L 35.464844 31.816406 L 35.394531 31.875 L 35.324219 31.925781 L 35.25 31.980469 L 35.175781 32.03125 L 35.09375 32.078125 L 35.015625 32.128906 L 34.84375 32.222656 L 34.753906 32.265625 L 34.660156 32.308594 L 34.566406 32.347656 L 34.46875 32.390625 L 34.265625 32.460938 L 34.046875 32.523438 L 33.9375 32.550781 L 33.703125 32.605469 L 33.578125 32.628906 L 33.453125 32.648438 L 33.324219 32.667969 L 33.058594 32.699219 L 32.921875 32.707031 L 32.78125 32.71875 L 32.632813 32.722656 L 32.484375 32.730469 L 32.285156 32.730469 L 32.238281 32.726563 L 32.195313 32.722656 L 32.148438 32.71875 L 32.101563 32.71875 L 32.007813 32.703125 L 31.957031 32.695313 L 31.910156 32.6875 L 31.859375 32.675781 L 31.8125 32.667969 L 31.765625 32.65625 L 31.714844 32.644531 L 31.660156 32.628906 L 31.609375 32.617188 L 31.5625 32.601563 L 31.511719 32.585938 L 31.457031 32.566406 L 31.355469 32.53125 L 31.25 32.496094 L 31.144531 32.453125 L 31.039063 32.40625 L 30.933594 32.355469 L 30.824219 32.300781 L 30.714844 32.25 L 30.605469 32.1875 L 30.492188 32.128906 L 30.378906 32.0625 L 30.269531 32 L 30.15625 31.925781 L 30.042969 31.855469 L 29.929688 31.78125 L 29.589844 31.546875 L 29.472656 31.460938 L 29.359375 31.375 L 29.242188 31.285156 L 29.128906 31.199219 L 29.015625 31.105469 L 28.78125 30.917969 L 28.671875 30.820313 L 28.554688 30.722656 L 28.214844 30.417969 L 27.988281 30.207031 L 27.878906 30.101563 L 27.765625 29.996094 L 27.328125 29.558594 L 27.222656 29.441406 L 27.117188 29.332031 L 26.90625 29.105469 L 26.808594 28.992188 L 26.703125 28.878906 L 26.605469 28.765625 L 26.503906 28.652344 L 26.40625 28.535156 L 26.21875 28.308594 L 26.121094 28.195313 L 26.03125 28.078125 L 25.9375 27.96875 L 25.679688 27.628906 L 25.597656 27.519531 L 25.492188 27.375 L 25.375 27.21875 L 25.242188 27.050781 L 25.097656 26.871094 L 25.023438 26.777344 L 24.945313 26.679688 L 24.863281 26.578125 L 24.777344 26.480469 L 24.597656 26.269531 L 24.503906 26.164063 L 24.308594 25.945313 L 24.097656 25.71875 L 23.988281 25.609375 L 23.878906 25.492188 L 23.765625 25.378906 L 23.648438 25.265625 L 23.527344 25.144531 L 23.40625 25.03125 L 23.28125 24.914063 L 23.152344 24.800781 L 23.019531 24.683594 L 22.890625 24.566406 L 22.75 24.453125 L 22.613281 24.34375 L 22.472656 24.230469 L 22.328125 24.113281 L 22.183594 24.003906 L 21.878906 23.785156 L 21.726563 23.683594 L 21.566406 23.578125 L 21.488281 23.527344 L 21.410156 23.472656 L 21.328125 23.425781 L 21.25 23.375 L 21.167969 23.328125 L 21.082031 23.277344 L 20.917969 23.183594 L 20.832031 23.136719 L 20.75 23.089844 L 20.660156 23.042969 L 20.578125 23 L 20.488281 22.953125 L 20.402344 22.910156 L 20.3125 22.871094 L 20.226563 22.828125 L 20.136719 22.785156 L 20.046875 22.746094 L 19.957031 22.703125 L 19.863281 22.667969 L 19.777344 22.628906 L 19.496094 22.523438 L 19.40625 22.488281 L 19.308594 22.457031 L 19.121094 22.394531 L 19.023438 22.363281 L 18.828125 22.308594 L 18.734375 22.28125 L 18.636719 22.253906 L 18.535156 22.230469 L 18.4375 22.207031 L 18.335938 22.1875 L 18.234375 22.164063 L 18.136719 22.144531 L 18.03125 22.125 L 17.933594 22.109375 L 17.828125 22.09375 L 17.726563 22.078125 L 17.625 22.066406 L 17.308594 22.03125 L 17.203125 22.027344 L 17.097656 22.019531 L 16.988281 22.015625 L 16.886719 22.011719 L 16.777344 22.011719 L 16.667969 22.007813 L 16.546875 22.007813 L 16.425781 22.011719 L 16.308594 22.015625 L 16.191406 22.015625 L 16.074219 22.019531 L 15.957031 22.03125 L 15.84375 22.035156 L 15.730469 22.046875 L 15.621094 22.054688 L 15.507813 22.0625 L 15.398438 22.078125 L 15.289063 22.089844 L 15.183594 22.105469 L 15.074219 22.121094 L 14.863281 22.152344 L 14.761719 22.171875 L 14.65625 22.1875 L 14.558594 22.210938 L 14.453125 22.230469 L 14.160156 22.300781 L 14.0625 22.328125 L 13.96875 22.351563 L 13.78125 22.40625 L 13.6875 22.4375 L 13.597656 22.464844 L 13.417969 22.527344 L 13.328125 22.5625 L 13.15625 22.625 L 13.070313 22.660156 L 12.984375 22.699219 L 12.90625 22.734375 L 12.824219 22.769531 L 12.738281 22.8125 L 12.660156 22.847656 L 12.578125 22.890625 L 12.5 22.929688 L 12.425781 22.96875 L 12.347656 23.015625 L 12.273438 23.058594 L 12.199219 23.097656 L 12.125 23.144531 L 12.050781 23.1875 L 11.769531 23.375 L 11.703125 23.425781 L 11.636719 23.472656 L 11.503906 23.574219 L 11.378906 23.675781 L 11.316406 23.730469 L 11.253906 23.78125 L 11.191406 23.835938 L 11.136719 23.890625 L 11.074219 23.945313 L 11.015625 24 L 10.960938 24.058594 L 10.90625 24.109375 L 10.847656 24.171875 L 10.796875 24.226563 L 10.742188 24.28125 L 10.6875 24.34375 L 10.640625 24.402344 L 10.589844 24.460938 L 10.535156 24.519531 L 10.488281 24.578125 L 10.4375 24.640625 L 10.34375 24.765625 L 10.300781 24.828125 L 10.253906 24.890625 L 10.214844 24.953125 L 10.171875 25.015625 L 10.125 25.078125 L 10.085938 25.144531 L 10.046875 25.207031 L 10.003906 25.273438 L 9.96875 25.339844 L 9.929688 25.402344 L 9.851563 25.535156 L 9.820313 25.601563 L 9.78125 25.671875 L 9.75 25.734375 L 9.71875 25.800781 L 9.683594 25.871094 L 9.621094 26.003906 L 9.59375 26.074219 L 9.5625 26.140625 L 9.53125 26.214844 L 9.507813 26.28125 L 9.476563 26.347656 L 9.453125 26.421875 L 9.429688 26.488281 L 9.402344 26.558594 L 9.332031 26.769531 L 9.234375 27.121094 L 9.195313 27.265625 L 9.164063 27.40625 L 9.109375 27.6875 L 9.085938 27.828125 L 9.066406 27.972656 L 9.046875 28.113281 L 9.03125 28.257813 L 9.019531 28.390625 L 9.011719 28.523438 L 9.007813 28.65625 L 9 28.785156 L 9 29.050781 L 9.007813 29.1875 L 9.015625 29.316406 L 9.023438 29.449219 L 9.03125 29.578125 L 9.0625 29.84375 L 9.085938 29.96875 L 9.109375 30.097656 L 9.132813 30.230469 L 9.15625 30.359375 L 9.21875 30.609375 L 9.253906 30.738281 L 9.289063 30.863281 L 9.328125 30.988281 L 9.371094 31.113281 L 9.414063 31.234375 L 9.460938 31.359375 L 9.507813 31.480469 L 9.5625 31.601563 L 9.613281 31.722656 L 9.667969 31.84375 L 9.785156 32.078125 L 9.84375 32.191406 L 9.910156 32.308594 L 9.976563 32.421875 L 10.046875 32.53125 L 10.113281 32.644531 L 10.261719 32.863281 L 10.339844 32.972656 L 10.417969 33.078125 L 10.496094 33.1875 L 10.578125 33.289063 L 10.75 33.492188 L 10.839844 33.59375 L 10.929688 33.6875 L 11.019531 33.785156 L 11.113281 33.878906 L 11.308594 34.066406 L 11.40625 34.15625 L 11.511719 34.246094 L 11.613281 34.328125 L 11.824219 34.5 L 12.042969 34.65625 L 12.15625 34.734375 L 12.265625 34.8125 L 12.382813 34.886719 L 12.617188 35.027344 L 12.738281 35.09375 L 12.859375 35.15625 L 12.984375 35.222656 L 13.078125 35.269531 L 13.179688 35.316406 L 13.277344 35.359375 L 13.375 35.40625 L 13.578125 35.484375 L 13.675781 35.527344 L 13.980469 35.632813 L 14.285156 35.726563 L 14.390625 35.753906 L 14.59375 35.808594 L 14.699219 35.828125 L 14.804688 35.851563 L 14.90625 35.871094 L 15.015625 35.890625 L 15.117188 35.90625 L 15.433594 35.953125 L 15.539063 35.964844 L 15.644531 35.972656 L 15.753906 35.980469 L 15.859375 35.988281 L 15.96875 35.992188 L 16.074219 35.996094 L 16.183594 36 L 16.390625 36 L 16.59375 35.992188 L 16.699219 35.988281 L 16.800781 35.984375 L 16.90625 35.972656 L 17.011719 35.964844 L 17.113281 35.953125 L 17.21875 35.941406 L 17.320313 35.929688 L 17.425781 35.914063 L 17.53125 35.902344 L 17.734375 35.863281 L 17.84375 35.84375 L 17.945313 35.824219 L 18.15625 35.777344 L 18.261719 35.75 L 18.363281 35.722656 L 18.46875 35.699219 L 18.679688 35.636719 L 18.78125 35.605469 L 18.890625 35.574219 L 18.996094 35.535156 L 19.097656 35.5 L 19.203125 35.464844 L 19.414063 35.386719 L 19.625 35.300781 L 19.730469 35.261719 L 19.832031 35.214844 L 19.9375 35.167969 L 20.046875 35.121094 L 20.148438 35.070313 L 20.359375 34.96875 L 20.464844 34.914063 L 20.566406 34.859375 L 20.671875 34.804688 L 20.777344 34.746094 L 20.878906 34.6875 L 20.984375 34.628906 L 21.089844 34.566406 L 21.191406 34.503906 L 21.296875 34.441406 L 21.402344 34.375 L 21.503906 34.308594 L 21.609375 34.238281 L 21.710938 34.171875 L 21.8125 34.101563 L 21.917969 34.03125 L 22.019531 33.957031 L 22.125 33.882813 L 22.226563 33.808594 L 22.53125 33.574219 L 22.636719 33.492188 L 22.734375 33.40625 L 22.839844 33.328125 L 22.9375 33.238281 L 20.746094 30.777344 L 20.535156 30.949219 L 20.433594 31.03125 L 20.328125 31.113281 L 20.117188 31.269531 L 20.015625 31.34375 L 19.90625 31.421875 L 19.804688 31.488281 L 19.703125 31.5625 L 19.597656 31.628906 L 19.492188 31.691406 L 19.390625 31.757813 L 19.285156 31.820313 L 19.183594 31.878906 L 19.078125 31.9375 L 18.875 32.046875 L 18.769531 32.097656 L 18.667969 32.148438 L 18.566406 32.195313 L 18.464844 32.238281 L 18.363281 32.285156 L 18.261719 32.328125 L 18.160156 32.363281 L 18.058594 32.40625 L 17.957031 32.4375 L 17.859375 32.472656 L 17.65625 32.535156 L 17.460938 32.589844 L 17.359375 32.609375 L 17.265625 32.632813 L 17.164063 32.652344 L 17.066406 32.671875 L 16.96875 32.6875 L 16.875 32.699219 L 16.777344 32.707031 L 16.683594 32.71875 L 16.585938 32.726563 L 16.488281 32.730469 L 16.394531 32.734375 L 16.207031 32.734375 L 16.113281 32.730469 L 16.019531 32.722656 L 15.925781 32.71875 L 15.835938 32.707031 L 15.746094 32.699219 L 15.65625 32.683594 L 15.5625 32.671875 L 15.472656 32.652344 L 15.386719 32.628906 L 15.296875 32.609375 L 15.207031 32.585938 L 15.121094 32.5625 L 15.03125 32.53125 L 14.773438 32.4375 L 14.6875 32.398438 L 14.605469 32.359375 L 14.519531 32.320313 L 14.453125 32.285156 L 14.328125 32.214844 L 14.265625 32.175781 L 14.203125 32.140625 L 14.140625 32.097656 L 14.078125 32.058594 L 14.015625 32.015625 L 13.957031 31.972656 L 13.902344 31.929688 L 13.84375 31.886719 L 13.785156 31.839844 L 13.730469 31.792969 L 13.621094 31.691406 L 13.566406 31.644531 L 13.515625 31.59375 L 13.46875 31.542969 L 13.417969 31.488281 L 13.367188 31.4375 L 13.273438 31.328125 L 13.226563 31.269531 L 13.183594 31.21875 L 13.140625 31.15625 L 13.09375 31.097656 L 13.050781 31.042969 L 13.015625 30.984375 L 12.972656 30.921875 L 12.9375 30.859375 L 12.898438 30.800781 L 12.859375 30.738281 L 12.828125 30.675781 L 12.792969 30.613281 L 12.761719 30.550781 L 12.730469 30.484375 L 12.699219 30.421875 L 12.671875 30.359375 L 12.640625 30.292969 L 12.613281 30.222656 L 12.589844 30.15625 L 12.5625 30.09375 L 12.542969 30.027344 L 12.519531 29.957031 L 12.480469 29.824219 L 12.464844 29.753906 L 12.445313 29.6875 L 12.433594 29.613281 L 12.417969 29.546875 L 12.394531 29.40625 L 12.386719 29.339844 L 12.375 29.265625 L 12.371094 29.199219 L 12.363281 29.128906 L 12.359375 29.058594 L 12.359375 28.984375 L 12.355469 28.917969 L 12.355469 28.84375 L 12.359375 28.777344 L 12.359375 28.703125 L 12.363281 28.636719 L 12.371094 28.5625 L 12.378906 28.496094 L 12.386719 28.421875 L 12.394531 28.351563 L 12.40625 28.28125 L 12.421875 28.207031 L 12.433594 28.140625 L 12.449219 28.066406 L 12.464844 27.996094 L 12.480469 27.921875 L 12.5 27.855469 L 12.519531 27.78125 L 12.542969 27.710938 L 12.5625 27.640625 L 12.589844 27.570313 L 12.613281 27.5 L 12.640625 27.433594 L 12.671875 27.359375 L 12.703125 27.292969 L 12.734375 27.222656 L 12.769531 27.15625 L 12.808594 27.089844 L 12.847656 27.019531 L 12.890625 26.953125 L 12.929688 26.890625 L 12.972656 26.824219 L 13.066406 26.699219 L 13.121094 26.636719 L 13.171875 26.574219 L 13.226563 26.515625 L 13.28125 26.453125 L 13.40625 26.335938 L 13.46875 26.28125 L 13.535156 26.222656 L 13.605469 26.171875 L 13.675781 26.113281 L 13.75 26.0625 L 13.828125 26.015625 L 13.984375 25.914063 L 14.070313 25.867188 L 14.15625 25.824219 L 14.246094 25.78125 L 14.339844 25.734375 L 14.433594 25.695313 L 14.53125 25.65625 L 14.632813 25.617188 L 14.734375 25.582031 L 14.84375 25.546875 L 15.0625 25.484375 L 15.179688 25.453125 L 15.296875 25.425781 L 15.546875 25.378906 L 15.675781 25.359375 L 15.941406 25.320313 L 16.078125 25.304688 L 16.367188 25.28125 L 16.515625 25.269531 L 16.667969 25.265625 L 16.984375 25.265625 L 17.0625 25.269531 L 17.21875 25.285156 L 17.292969 25.296875 L 17.371094 25.308594 L 17.449219 25.316406 L 17.527344 25.332031 L 17.601563 25.347656 L 17.679688 25.363281 L 17.828125 25.402344 L 17.984375 25.441406 L 18.058594 25.46875 L 18.136719 25.488281 L 18.207031 25.515625 L 18.28125 25.546875 L 18.359375 25.570313 L 18.433594 25.601563 L 18.503906 25.628906 L 18.652344 25.691406 L 18.722656 25.726563 L 18.871094 25.796875 L 18.941406 25.832031 L 19.015625 25.871094 L 19.082031 25.90625 L 19.15625 25.949219 L 19.222656 25.984375 L 19.296875 26.027344 L 19.363281 26.066406 L 19.433594 26.109375 L 19.503906 26.15625 L 19.570313 26.199219 L 19.640625 26.238281 L 19.773438 26.332031 L 19.90625 26.421875 L 20.035156 26.519531 L 20.167969 26.613281 L 20.296875 26.714844 L 20.421875 26.8125 L 20.542969 26.917969 L 20.664063 27.019531 L 20.898438 27.230469 L 21.015625 27.332031 L 21.34375 27.648438 L 21.546875 27.859375 L 21.644531 27.960938 L 21.738281 28.0625 L 21.832031 28.167969 L 21.925781 28.265625 L 22.097656 28.460938 L 22.253906 28.648438 L 22.328125 28.738281 L 22.402344 28.824219 L 22.535156 28.988281 L 22.65625 29.144531 L 22.761719 29.28125 L 22.851563 29.402344 L 22.925781 29.507813 L 22.984375 29.589844 L 23.03125 29.652344 L 23.066406 29.703125 L 23.222656 29.921875 L 23.308594 30.03125 L 23.394531 30.144531 L 23.484375 30.261719 L 23.578125 30.378906 L 23.671875 30.5 L 23.769531 30.621094 L 23.972656 30.863281 L 24.078125 30.992188 L 24.1875 31.117188 L 24.414063 31.375 L 24.53125 31.503906 L 24.648438 31.636719 L 24.890625 31.894531 L 25.015625 32.027344 L 25.144531 32.15625 L 25.277344 32.285156 L 25.40625 32.421875 L 25.816406 32.808594 L 26.097656 33.066406 L 26.246094 33.191406 L 26.390625 33.316406 L 26.6875 33.566406 L 26.992188 33.808594 L 27.144531 33.925781 L 27.304688 34.042969 L 27.464844 34.15625 L 27.621094 34.269531 L 27.78125 34.378906 L 27.941406 34.484375 L 28.109375 34.59375 L 28.1875 34.640625 L 28.273438 34.691406 L 28.355469 34.746094 L 28.4375 34.792969 L 28.519531 34.84375 L 28.605469 34.890625 L 28.6875 34.9375 L 28.777344 34.984375 L 28.859375 35.027344 L 28.945313 35.074219 L 29.03125 35.117188 L 29.113281 35.15625 L 29.203125 35.203125 L 29.285156 35.242188 L 29.375 35.28125 L 29.460938 35.324219 L 29.546875 35.359375 L 29.636719 35.398438 L 29.722656 35.433594 L 29.8125 35.46875 L 29.898438 35.503906 L 29.984375 35.535156 L 30.074219 35.566406 L 30.160156 35.597656 L 30.339844 35.660156 L 30.429688 35.6875 L 30.515625 35.714844 L 30.609375 35.738281 L 30.699219 35.765625 L 30.785156 35.785156 L 30.875 35.8125 L 30.96875 35.828125 L 31.058594 35.851563 L 31.144531 35.871094 L 31.238281 35.886719 L 31.328125 35.902344 L 31.421875 35.917969 L 31.78125 35.964844 L 31.875 35.96875 L 31.96875 35.976563 L 32.148438 35.984375 L 32.238281 35.984375 L 32.332031 35.988281 L 32.453125 35.984375 L 32.691406 35.984375 L 32.8125 35.980469 L 32.925781 35.972656 L 33.042969 35.96875 L 33.15625 35.957031 L 33.269531 35.953125 L 33.378906 35.941406 L 33.492188 35.929688 L 33.601563 35.921875 L 33.710938 35.90625 L 33.816406 35.890625 L 33.925781 35.875 L 34.136719 35.84375 L 34.238281 35.824219 L 34.34375 35.808594 L 34.441406 35.785156 L 34.546875 35.765625 L 34.9375 35.671875 L 35.3125 35.5625 L 35.671875 35.4375 L 35.757813 35.40625 L 35.929688 35.335938 L 36.015625 35.296875 L 36.09375 35.261719 L 36.179688 35.222656 L 36.261719 35.1875 L 36.339844 35.148438 L 36.421875 35.109375 L 36.5 35.066406 L 36.574219 35.027344 L 36.652344 34.984375 L 36.726563 34.941406 L 36.800781 34.894531 L 36.875 34.855469 L 36.949219 34.808594 L 37.019531 34.761719 L 37.089844 34.71875 L 37.160156 34.671875 L 37.230469 34.621094 L 37.296875 34.574219 L 37.496094 34.421875 L 37.621094 34.320313 L 37.6875 34.265625 L 37.746094 34.214844 L 37.808594 34.160156 L 37.863281 34.109375 L 37.925781 34.050781 L 37.984375 33.996094 L 38.152344 33.828125 L 38.203125 33.769531 L 38.261719 33.714844 L 38.3125 33.65625 L 38.363281 33.59375 L 38.515625 33.417969 L 38.5625 33.355469 L 38.609375 33.296875 L 38.65625 33.234375 L 38.699219 33.171875 L 38.746094 33.109375 L 38.832031 32.984375 L 38.875 32.917969 L 38.914063 32.855469 L 38.953125 32.789063 L 38.996094 32.722656 L 39.035156 32.65625 L 39.074219 32.59375 L 39.109375 32.527344 L 39.144531 32.464844 L 39.183594 32.394531 L 39.21875 32.328125 L 39.25 32.261719 L 39.28125 32.191406 L 39.316406 32.125 L 39.347656 32.058594 L 39.378906 31.988281 L 39.40625 31.921875 L 39.4375 31.855469 L 39.46875 31.785156 L 39.496094 31.71875 L 39.519531 31.644531 L 39.546875 31.578125 L 39.574219 31.507813 L 39.644531 31.296875 L 39.667969 31.230469 L 39.6875 31.15625 L 39.730469 31.015625 L 39.835938 30.59375 L 39.863281 30.449219 L 39.890625 30.308594 L 39.9375 30.019531 L 39.953125 29.878906 L 39.96875 29.734375 L 39.980469 29.605469 L 39.988281 29.46875 L 39.996094 29.339844 L 40 29.203125 L 40 28.941406 L 39.996094 28.808594 L 39.984375 28.675781 L 39.980469 28.546875 L 39.96875 28.414063 L 39.953125 28.28125 L 39.933594 28.15625 L 39.914063 28.023438 L 39.867188 27.765625 L 39.84375 27.640625 L 39.78125 27.382813 L 39.746094 27.257813 L 39.707031 27.128906 L 39.671875 27.007813 L 39.628906 26.882813 L 39.585938 26.761719 L 39.535156 26.636719 L 39.488281 26.515625 L 39.386719 26.273438 L 39.332031 26.15625 L 39.273438 26.035156 L 39.214844 25.921875 L 39.089844 25.6875 L 39.023438 25.578125 L 38.953125 25.464844 L 38.886719 25.351563 L 38.738281 25.132813 L 38.582031 24.921875 L 38.503906 24.8125 L 38.421875 24.710938 L 38.25 24.507813 L 38.160156 24.40625 L 38.070313 24.3125 L 37.980469 24.214844 L 37.886719 24.121094 L 37.691406 23.933594 L 37.59375 23.84375 L 37.488281 23.753906 L 37.390625 23.671875 L 37.28125 23.585938 L 37.175781 23.5 L 36.957031 23.34375 L 36.84375 23.265625 L 36.734375 23.1875 L 36.617188 23.113281 L 36.5 23.046875 L 36.382813 22.972656 L 36.261719 22.90625 L 36.140625 22.84375 L 35.945313 22.746094 L 35.875 22.707031 L 35.800781 22.675781 L 35.730469 22.640625 L 35.65625 22.609375 L 35.589844 22.578125 L 35.515625 22.550781 L 35.441406 22.519531 L 35.371094 22.492188 L 35.222656 22.4375 L 35.152344 22.410156 L 35.078125 22.386719 L 35 22.359375 L 34.925781 22.339844 L 34.855469 22.3125 L 34.78125 22.292969 L 34.703125 22.269531 L 34.628906 22.25 L 34.558594 22.230469 L 34.480469 22.214844 L 34.40625 22.191406 L 34.328125 22.175781 L 34.105469 22.128906 L 34.027344 22.113281 L 33.953125 22.105469 L 33.875 22.089844 L 33.800781 22.078125 L 33.722656 22.066406 L 33.644531 22.058594 L 33.570313 22.046875 L 33.492188 22.039063 L 33.417969 22.03125 L 33.339844 22.027344 L 33.261719 22.019531 L 33.183594 22.015625 L 33.109375 22.011719 L 32.875 22 Z"/></svg>