<?xml version="1.0" standalone="no"?>
<!DOCTYPE svg PUBLIC "-//W3C//DTD SVG 20010904//EN"
 "http://www.w3.org/TR/2001/REC-SVG-20010904/DTD/svg10.dtd">
<svg version="1.0" xmlns="http://www.w3.org/2000/svg"
 width="187.000000pt" height="182.000000pt" viewBox="0 0 187.000000 182.000000"
 preserveAspectRatio="xMidYMid meet">

<g transform="translate(0.000000,182.000000) scale(0.100000,-0.100000)"
fill="#7443ff" stroke="none">
<path d="M90 905 l0 -845 845 0 845 0 0 845 0 845 -845 0 -845 0 0 -845z
m1650 -5 l0 -800 -805 0 -805 0 0 800 0 800 805 0 805 0 0 -800z"/>
<path d="M162 903 l3 -768 770 0 770 0 3 768 2 767 -775 0 -775 0 2 -767z
m1498 2 l0 -725 -725 0 -725 0 0 725 0 725 725 0 725 0 0 -725z"/>
<path d="M585 1341 c-48 -22 -69 -44 -90 -94 -50 -120 34 -247 165 -247 25 0
40 5 40 13 0 22 -16 38 -33 32 -10 -4 -19 1 -26 14 -15 27 -14 31 10 31 27 0
19 24 -9 28 -20 3 -22 10 -22 58 l0 54 40 0 c29 0 40 -4 40 -15 0 -11 -11 -15
-37 -15 -21 0 -33 -4 -27 -8 15 -14 88 -32 127 -32 22 0 37 -6 41 -15 3 -8 13
-15 22 -15 14 0 16 9 12 59 -5 72 -40 124 -102 152 -52 23 -100 24 -151 0z
m95 -42 c14 -25 9 -31 -23 -27 -21 3 -23 6 -16 26 10 28 25 28 39 1z m-83 -14
c-4 -8 -17 -15 -29 -15 l-23 0 25 20 c27 20 36 19 27 -5z m164 -13 c-19 -6
-41 6 -41 23 0 14 3 13 26 -2 15 -9 21 -19 15 -21z m-177 -57 c-4 -9 -19 -15
-35 -15 -19 0 -29 5 -29 15 0 10 11 15 35 15 26 0 33 -3 29 -15z m216 0 c0
-10 -10 -15 -30 -15 -20 0 -30 5 -30 15 0 10 10 15 30 15 20 0 30 -5 30 -15z
m-217 -76 c5 -18 1 -20 -26 -17 -21 2 -33 9 -35 21 -5 27 54 24 61 -4z m14
-64 c9 -25 -2 -27 -28 -6 l-24 20 23 1 c12 0 25 -7 29 -15z"/>
<path d="M935 925 c-346 -339 -359 -354 -342 -372 17 -17 31 -3 372 337 196
195 354 361 353 369 -2 8 -7 16 -13 17 -5 2 -172 -156 -370 -351z"/>
<path d="M691 1098 c12 -29 25 -64 30 -77 9 -22 11 -22 27 -8 17 15 20 15 41
1 21 -15 24 -15 39 0 15 14 14 18 -6 39 -20 21 -20 25 -6 38 13 14 7 18 -60
37 -41 12 -77 22 -80 22 -3 0 4 -24 15 -52z"/>
<path d="M1133 708 c4 -18 14 -84 23 -145 l17 -113 33 0 c25 0 34 4 35 18 0 9
6 35 13 57 l13 40 12 -57 c12 -56 13 -58 45 -58 l33 0 17 118 c10 64 20 130
23 145 6 27 4 28 -28 25 l-34 -3 -10 -80 -10 -80 -13 43 c-10 34 -17 42 -37
42 -19 0 -26 -8 -38 -42 l-14 -43 -7 69 c-10 91 -13 96 -48 96 -29 0 -30 -2
-25 -32z"/>
</g>
</svg>
